<?xml version="1.0" encoding="utf-8"?>
<!-- Generator: Adobe Illustrator 21.1.0, SVG Export Plug-In . SVG Version: 6.00 Build 0)  -->
<svg version="1.1" xmlns="http://www.w3.org/2000/svg" xmlns:xlink="http://www.w3.org/1999/xlink" x="0px" y="0px"
	 viewBox="0 0 24 24" style="enable-background:new 0 0 24 24;" xml:space="preserve">
<style type="text/css">
	.st0{fill:url(#SVGID_1_);}
	.st1{fill:url(#SVGID_2_);}
	.st2{fill:url(#SVGID_3_);}
	.st3{fill:#FFFFFF;}
	.st4{fill:url(#SVGID_4_);}
	.st5{fill:url(#SVGID_5_);}
	.st6{display:none;}
	.st7{display:inline;fill:none;}
</style>
<g id="Bookmark">
	<linearGradient id="SVGID_1_" gradientUnits="userSpaceOnUse" x1="12" y1="24" x2="12" y2="-9.094947e-13">
		<stop  offset="0" style="stop-color:#CB3C11"/>
		<stop  offset="1" style="stop-color:#EA8E28"/>
	</linearGradient>
	<rect class="st0" width="24" height="24"/>
</g>
<g id="Check_in">
	<g>
		<path d="M17.166,11.792c-0.414,0-0.75,0.336-0.75,0.75v1.942c0,0.698-0.568,1.267-1.266,1.267h-6.3
			c-0.698,0-1.267-0.568-1.267-1.267v-1.942c0-0.414-0.336-0.75-0.75-0.75s-0.75,0.336-0.75,0.75v1.942
			c0,1.525,1.241,2.767,2.767,2.767h6.3c1.525,0,2.766-1.241,2.766-2.767v-1.942C17.916,12.127,17.58,11.792,17.166,11.792z"/>
		<path d="M9.771,14.25h4.458c0.414,0,0.75-0.336,0.75-0.75s-0.336-0.75-0.75-0.75H9.771c-0.414,0-0.75,0.336-0.75,0.75
			S9.357,14.25,9.771,14.25z"/>
		<path d="M9.771,11.25h4.458c0.414,0,0.75-0.336,0.75-0.75s-0.336-0.75-0.75-0.75H9.771c-0.414,0-0.75,0.336-0.75,0.75
			S9.357,11.25,9.771,11.25z"/>
		<path d="M9.771,8.25h4.458c0.414,0,0.75-0.336,0.75-0.75s-0.336-0.75-0.75-0.75H9.771c-0.414,0-0.75,0.336-0.75,0.75
			S9.357,8.25,9.771,8.25z"/>
	</g>
</g>
<g id="Check_out">
</g>
<g id="Circulation">
</g>
<g id="Imported_files">
</g>
<g id="Fullscreen">
</g>
<g id="help">
</g>
<g id="Install">
</g>
<g id="Log_in">
</g>
<g id="Sign_up">
</g>
<g id="Notifications">
</g>
<g id="My_apps">
</g>
<g id="Using_Folio">
</g>
<g id="Notes">
</g>
<g id="Search">
</g>
<g id="Scan">
	<g id="Layer_17">
	</g>
</g>
<g id="Order">
</g>
<g id="Bibs">
</g>
<g id="Platforms">
</g>
<g id="Split">
</g>
<g id="To-do">
</g>
<g id="Package">
</g>
<g id="Licenses">
</g>
<g id="Workflows">
</g>
<g id="Users">
</g>
<g id="Contacts">
</g>
<g id="Preference">
</g>
<g id="Items">
</g>
<g id="Finances">
</g>
<g id="Invoices">
</g>
<g id="Calendar">
</g>
<g id="Shop">
</g>
<g id="Blank">
</g>
</svg>
