<svg id="Layer_1" xmlns="http://www.w3.org/2000/svg" viewBox="0 0 24 24"><style>.st6{fill:#fff}</style><linearGradient id="SVGID_1_" gradientUnits="userSpaceOnUse" x1="12" y1="24" x2="12"><stop offset="0" stop-color="#cb3c11"/><stop offset="1" stop-color="#ea8e28"/></linearGradient><path fill="url(#SVGID_1_)" d="M0 0h24v24H0z"/><path class="st6" d="M17.166 12.527a.75.75 0 0 0-.75.75v1.941c0 .698-.568 1.267-1.267 1.267H8.851a1.269 1.269 0 0 1-1.267-1.267v-1.941a.75.75 0 0 0-1.5 0v1.941a2.77 2.77 0 0 0 2.767 2.767h6.299a2.77 2.77 0 0 0 2.767-2.767v-1.941a.752.752 0 0 0-.751-.75z"/><path class="st6" d="M10.125 14.344h3.75a.75.75 0 0 0 0-1.5h-3.75a.75.75 0 0 0 0 1.5zM10.125 10.922h3.75a.75.75 0 0 0 0-1.5h-3.75a.75.75 0 0 0 0 1.5zM10.125 7.5h3.75a.75.75 0 0 0 0-1.5h-3.75a.75.75 0 0 0 0 1.5z"/></svg>